<svg xmlns="http://www.w3.org/2000/svg" viewBox="0 0 258.82 258.82"><defs><style>.cls-1{fill:#e2d3b5;}</style></defs><title>Asset 2</title><g id="Layer_2" data-name="Layer 2"><g id="logo"><path class="cls-1" d="M129.41,0A129.41,129.41,0,1,0,258.82,129.41,129.55,129.55,0,0,0,129.41,0Zm17.06,251.16a31.6,31.6,0,0,1-5.69-17c-.48-18.67,0-37.41,1.2-56,.33-5,3.64-11.61,7.67-14.05,5.75-3.49,13.38-4.87,20.3-5.25,11-.59,16.75,4,19.61,13.37,3.49,11.43,1,23.34-7.67,27.75-4.51,2.3-11.22,2.28-16.23.84-2.75-.79-5.42-6.65-5.53-10.3-.11-3.24,3-6.93,5.52-9.68.67-.73,6.31,1.31,6.29,2-.07,3.49-1.28,7-2.05,10.44a19.26,19.26,0,0,0,.21,3.12c2.63-.91,5.55-1.11,7.2-2.66,3.32-3.12,1.76-13.48-2-16.55-4.81-3.93-12.77-3.72-16.49.43-6,6.7-5.83,19.78.37,27.09s17,8,25.72,2.57c12.55-7.79,15.51-30.23,11.15-41.34-4-10.11-22-19-34.58-16.65-5.59,1-11,3-17.38,4.85-.32-7-.81-13.82-.81-20.63,0-2,1.08-5.52,2.16-5.72,2.56-.48,6.58-.35,7.92,1.26,2.94,3.53,4.58,8.13,7.6,13.94,2.25-2,6.67-4.2,6.72-6.48a14.34,14.34,0,0,0-4.79-10.12c-4.84-3.94-10.8-6.52-16.3-9.68,4.41-1,9.06-1.21,12.06.91a218.53,218.53,0,0,1,21,17.58c4,3.69,7,8.5,11,12.19,9.76,8.95,23.24,8.52,32.23-.62,8.09-8.22,8.38-23.33,0-32A16.29,16.29,0,0,0,221,113c-7.57-5.73-19-2.71-22.12,6l-.06.17c-1.31,3.73.21,9.7,2.64,13.15,3.18,4.54,8.79,2.64,10.52-1.61-5,2.44-7-2.23-7.45-3.85-.6-2.29.78-6.45,2.62-7.31,2.85-1.32,8.66-.73,9.8-.18,3.25,1.58,3.9,11.24,2.61,16.16-.83,3.2-7.15,6.82-11.15,7-8.71.38-15.53-4.43-21.06-11.4-4.73-6-9.6-12.46-15.88-16.38-8.08-5-17.63-7.75-26.91-11.61-.28-13.84,18.25-27.76,31.61-22.18,3.07,1.28,6.81,5.93,6.6,8.76-.18,2.4-2,4.68-3.93,7a4,4,0,0,1-5.88.26l-4.41-4.35c-.19,1.35-1.31,3.94-.69,6,2.32,7.76,10.44,9.52,18.07,2.75,5.17-4.59,9-5.69,15.58-3.22,9.42,3.54,20.13-2.89,23.92-13,2.93-7.82-2.61-19-11.55-22.56-6.13-2.46-10.74-.29-13.32,5.74-2.35,5.47-.85,12.66,3.71,14,1-2,2-5.81,2.91-9A4.11,4.11,0,0,1,213,70.92,18.25,18.25,0,0,1,217.5,74c1.19,1.19.87,4.45.41,6.6-2.45,11.31-14.12,13.85-24.42,5.33-6.15-5.08-12.14-10.35-18.29-15.61,1.38-2.91,3.12-6.76,5-10.54,3.81-7.53,1.86-14.53-3.56-19.85-5.07-5-11.48-9.45-19.37-5.85-7.17,3.26-11.9,8.65-12.6,17-.87,10.32,4.61,18.16,13.81,17.63,3.25-.18,7.15-3.33,9.14-6.23,1.38-2,1-6.52-.47-8.72-1.29-2-5.09-2.33-7.78-3.41-.19.58-.39,1.15-.58,1.72l6,5.47c0,1-.07,1.91-.11,2.87-3.27.36-7.9,2.21-9.49.75-2.38-2.19-4.59-7.76-3.37-10,2-3.7,6.55-7.35,10.62-8.23,3.23-.69,8.69,1.79,10.82,4.62,4.16,5.49,2.08,12.3-2.43,16.42-8.83,8.06-18.57,15.16-28.23,22.26-1.56,1.15-5.79,1.32-6.81.18a65.79,65.79,0,0,1-11.14-17.84,159.45,159.45,0,0,1-6.78-19.88c-.22-.78,1.43-8.34,2.1-9.1a21.8,21.8,0,0,1,4.32-3.92c.52-.33,1.6.19,2.79.89a3.47,3.47,0,0,1,1.42,4.59L125,48c3.06-1.34,6.91-1.83,7.8-3.71a10.3,10.3,0,0,0-.67-8.75c-2.58-3.76-6.4-6.76-10-9.67-.75-.6-4.09.25-4.32,1-2.77,9.14-10.36,17-5.75,28.12,4.28,10.36,6.8,21.46,9.91,32.29,1.69,5.88,2.15,11.74-4.86,14.7C106.78,106.36,92,98.28,89.83,87.3,88.21,79,95.2,69.84,102.34,71.6c2.81.7,5.26,3.82,7.21,6.35.52.66-1.67,4.74-2.22,4.66-2.63-.4-5.13-1.69-8.62-3-.13,1.44-1.15,4.72-.34,5.26,2.2,1.45,5.49,2.85,7.75,2.2,2.54-.72,5.81-3.39,6.36-5.77,1.75-7.57-1.69-13.12-8.61-17.37a21,21,0,0,1-8.3-9.79C92.67,47.28,88.12,43.17,80.86,43c-6.46-.19-16.28,8.12-15.93,14.42.21,3.82,1.5,5.42,5,7.9,1.44,1,8.67.52,11.82-.82-4.22-1.28-6.39-2.13-9.13-2.83-1-.26-3.21-3.43-2.24-4.85,1.76-2.55,4.87-5.18,7.8-5.73,6.72-1.25,11.38,5.75,9,12.8C85.36,69.24,83,74.48,81.63,80,78.7,91.75,86,99.33,95.11,107c-13.86,9.56-26.28,18.92-43.28,18.53-9.37-.21-17.72-6.34-18.93-14.47-1.73-11.55,2.83-21.49,12.41-23.68,4.45-1,10.69.16,14.29,2.82,2.92,2.15,3.81,7.93,4.19,12.22.16,1.83-3,4.45-5.23,5.75-1,.59-4.59-.88-4.86-2-.53-2.06.33-4.54.9-6.78.3-1.15,1.2-2.14,2.1-3.66-7.54.79-10.66,4-9.84,9.16.92,5.8,7.81,11.21,12.59,8.56,4.59-2.54,9.66-6.85,11.26-11.5,2.4-7,.12-14.86-7-18.69-9.7-5.22-20-3.33-28,3.31C29.43,91.74,23.36,98.79,26,108.32c2.23,8.21,5.4,16.17,8.65,25.7-1.22,2.18-3.71,6.4-6,10.72-7.64,14.51-5.95,22.45,4.94,31.14,7.27,5.8,14.12,4.08,21.49.26,6.9-3.58,7.63-9.37,7.05-16-.55-6.23-5.41-7.67-9.93-6.87-2.66.47-4.71,4.4-8.29,8.06l11.33-3.81c-.41,3.48.43,8.27-1.53,10.11-2.6,2.45-8.69,4.71-11,3.31-4.35-2.7-9-7.6-10.06-12.35-2-9.06,5.85-20.2,15.13-22.34,16.86-3.89,32.94-9.18,47.38-19A23,23,0,0,1,106.09,114c5.1,0,10.7.38,15.18,2.52,2.59,1.23,4.82,6.12,4.64,9.21-.13,2.14-4.47,5.38-7.24,5.73-5,.63-10.22-.49-15.34-.95-13.7-1.25-23.8,5-31.69,15.41-7,9.33-4.72,19.18-.32,28.52,7,14.83,22.56,19.31,34.51,10.45,5.84-4.33,7.5-15.46,3.13-21s-12.36-7-17.59-3.12c-4.43,3.31-5,6.72-1.74,9.79l6.9-8c2.91,2.75,7.4,5,8.41,8.35,2.42,8-5.46,14.29-13.82,11.86-7-2-14.83-14.29-14.57-22.77.25-8.14,7.66-17.17,15.83-18.4a36.1,36.1,0,0,1,25.7,5.22c5.94,3.8,8.92,8.43,8.67,15.61-.76,22.46-.41,45-2.08,67.38-.57,7.6-1.54,15.53-5.41,22.18A122.94,122.94,0,1,1,252.35,129.41C252.35,191.41,206.21,242.83,146.47,251.16Z"/></g></g></svg>